<mxfile host="Electron" modified="2024-06-24T06:38:21.702Z" agent="Mozilla/5.0 (Windows NT 10.0; Win64; x64) AppleWebKit/537.36 (KHTML, like Gecko) draw.io/24.5.3 Chrome/124.0.6367.207 Electron/30.0.6 Safari/537.36" etag="QMPaLMyDUOA3f5E-oDVE" version="24.5.3" type="device">
  <diagram id="C5RBs43oDa-KdzZeNtuy" name="Page-1">
    <mxGraphModel dx="1134" dy="796" grid="1" gridSize="10" guides="1" tooltips="1" connect="1" arrows="1" fold="1" page="1" pageScale="1" pageWidth="827" pageHeight="1169" background="none" math="0" shadow="0">
      <root>
        <mxCell id="WIyWlLk6GJQsqaUBKTNV-0" />
        <mxCell id="WIyWlLk6GJQsqaUBKTNV-1" parent="WIyWlLk6GJQsqaUBKTNV-0" />
        <mxCell id="2GEWoy9SdsrAs0yON6EI-13" value="Bestellprozess" style="swimlane;childLayout=stackLayout;resizeParent=1;resizeParentMax=0;startSize=20;html=1;" parent="WIyWlLk6GJQsqaUBKTNV-1" vertex="1">
          <mxGeometry x="60.000000000000455" y="40" width="360" height="660" as="geometry" />
        </mxCell>
        <mxCell id="2GEWoy9SdsrAs0yON6EI-14" value="Kunde" style="swimlane;startSize=20;html=1;" parent="2GEWoy9SdsrAs0yON6EI-13" vertex="1">
          <mxGeometry y="20" width="120" height="640" as="geometry">
            <mxRectangle y="20" width="40" height="460" as="alternateBounds" />
          </mxGeometry>
        </mxCell>
        <mxCell id="2GEWoy9SdsrAs0yON6EI-22" style="edgeStyle=orthogonalEdgeStyle;rounded=0;orthogonalLoop=1;jettySize=auto;html=1;exitX=0.5;exitY=1;exitDx=0;exitDy=0;entryX=0.5;entryY=0;entryDx=0;entryDy=0;" parent="2GEWoy9SdsrAs0yON6EI-14" target="2GEWoy9SdsrAs0yON6EI-21" edge="1">
          <mxGeometry relative="1" as="geometry">
            <mxPoint x="60.00000000000006" y="80" as="sourcePoint" />
          </mxGeometry>
        </mxCell>
        <mxCell id="2GEWoy9SdsrAs0yON6EI-21" value="Bestellung über Website" style="rounded=0;whiteSpace=wrap;html=1;" parent="2GEWoy9SdsrAs0yON6EI-14" vertex="1">
          <mxGeometry x="10" y="100" width="100" height="50" as="geometry" />
        </mxCell>
        <mxCell id="2GEWoy9SdsrAs0yON6EI-26" value="" style="ellipse;whiteSpace=wrap;html=1;aspect=fixed;" parent="2GEWoy9SdsrAs0yON6EI-14" vertex="1">
          <mxGeometry x="35" y="30" width="50" height="50" as="geometry" />
        </mxCell>
        <mxCell id="2GEWoy9SdsrAs0yON6EI-38" value="Bezahlung" style="rounded=0;whiteSpace=wrap;html=1;" parent="2GEWoy9SdsrAs0yON6EI-14" vertex="1">
          <mxGeometry x="10" y="330" width="100" height="50" as="geometry" />
        </mxCell>
        <mxCell id="2GEWoy9SdsrAs0yON6EI-48" style="edgeStyle=orthogonalEdgeStyle;rounded=0;orthogonalLoop=1;jettySize=auto;html=1;exitX=0.5;exitY=1;exitDx=0;exitDy=0;entryX=0.5;entryY=0;entryDx=0;entryDy=0;" parent="2GEWoy9SdsrAs0yON6EI-14" source="2GEWoy9SdsrAs0yON6EI-45" target="2GEWoy9SdsrAs0yON6EI-47" edge="1">
          <mxGeometry relative="1" as="geometry" />
        </mxCell>
        <mxCell id="2GEWoy9SdsrAs0yON6EI-45" value="Erhalt der Bestätigung" style="rounded=0;whiteSpace=wrap;html=1;fontSize=11;" parent="2GEWoy9SdsrAs0yON6EI-14" vertex="1">
          <mxGeometry x="10" y="500" width="100" height="50" as="geometry" />
        </mxCell>
        <mxCell id="2GEWoy9SdsrAs0yON6EI-47" value="" style="ellipse;whiteSpace=wrap;html=1;aspect=fixed;labelBorderColor=default;strokeWidth=4;" parent="2GEWoy9SdsrAs0yON6EI-14" vertex="1">
          <mxGeometry x="40" y="580" width="40" height="40" as="geometry" />
        </mxCell>
        <mxCell id="2GEWoy9SdsrAs0yON6EI-15" value="Lager" style="swimlane;startSize=20;html=1;" parent="2GEWoy9SdsrAs0yON6EI-13" vertex="1">
          <mxGeometry x="120" y="20" width="120" height="640" as="geometry">
            <mxRectangle x="120" y="20" width="40" height="460" as="alternateBounds" />
          </mxGeometry>
        </mxCell>
        <mxCell id="2GEWoy9SdsrAs0yON6EI-30" style="edgeStyle=orthogonalEdgeStyle;rounded=0;orthogonalLoop=1;jettySize=auto;html=1;exitX=0.5;exitY=1;exitDx=0;exitDy=0;entryX=0.5;entryY=0;entryDx=0;entryDy=0;" parent="2GEWoy9SdsrAs0yON6EI-15" source="2GEWoy9SdsrAs0yON6EI-27" target="2GEWoy9SdsrAs0yON6EI-29" edge="1">
          <mxGeometry relative="1" as="geometry" />
        </mxCell>
        <mxCell id="2GEWoy9SdsrAs0yON6EI-31" value="Ja" style="edgeLabel;html=1;align=center;verticalAlign=middle;resizable=0;points=[];" parent="2GEWoy9SdsrAs0yON6EI-30" vertex="1" connectable="0">
          <mxGeometry x="-0.1984" y="-3" relative="1" as="geometry">
            <mxPoint as="offset" />
          </mxGeometry>
        </mxCell>
        <mxCell id="2GEWoy9SdsrAs0yON6EI-33" style="edgeStyle=orthogonalEdgeStyle;rounded=0;orthogonalLoop=1;jettySize=auto;html=1;exitX=0.5;exitY=0;exitDx=0;exitDy=0;entryX=0.5;entryY=1;entryDx=0;entryDy=0;" parent="2GEWoy9SdsrAs0yON6EI-15" source="2GEWoy9SdsrAs0yON6EI-27" target="2GEWoy9SdsrAs0yON6EI-32" edge="1">
          <mxGeometry relative="1" as="geometry" />
        </mxCell>
        <mxCell id="2GEWoy9SdsrAs0yON6EI-34" value="Nein" style="edgeLabel;html=1;align=center;verticalAlign=middle;resizable=0;points=[];" parent="2GEWoy9SdsrAs0yON6EI-33" vertex="1" connectable="0">
          <mxGeometry x="-0.3333" y="1" relative="1" as="geometry">
            <mxPoint x="-19" y="3" as="offset" />
          </mxGeometry>
        </mxCell>
        <mxCell id="2GEWoy9SdsrAs0yON6EI-27" value="Überprüfung auf Lager" style="rhombus;whiteSpace=wrap;html=1;fontSize=10;" parent="2GEWoy9SdsrAs0yON6EI-15" vertex="1">
          <mxGeometry x="10" y="170" width="100" height="80" as="geometry" />
        </mxCell>
        <mxCell id="2GEWoy9SdsrAs0yON6EI-29" value="Bestellung Bestätig" style="rounded=0;whiteSpace=wrap;html=1;" parent="2GEWoy9SdsrAs0yON6EI-15" vertex="1">
          <mxGeometry x="10" y="270" width="100" height="50" as="geometry" />
        </mxCell>
        <mxCell id="2GEWoy9SdsrAs0yON6EI-32" value="Nachricht an Team" style="rounded=0;whiteSpace=wrap;html=1;" parent="2GEWoy9SdsrAs0yON6EI-15" vertex="1">
          <mxGeometry x="10" y="100" width="100" height="50" as="geometry" />
        </mxCell>
        <mxCell id="2GEWoy9SdsrAs0yON6EI-44" style="edgeStyle=orthogonalEdgeStyle;rounded=0;orthogonalLoop=1;jettySize=auto;html=1;exitX=0.5;exitY=1;exitDx=0;exitDy=0;entryX=0.5;entryY=0;entryDx=0;entryDy=0;" parent="2GEWoy9SdsrAs0yON6EI-15" source="2GEWoy9SdsrAs0yON6EI-41" target="2GEWoy9SdsrAs0yON6EI-43" edge="1">
          <mxGeometry relative="1" as="geometry" />
        </mxCell>
        <mxCell id="2GEWoy9SdsrAs0yON6EI-41" value="Versendung der Ware" style="rounded=0;whiteSpace=wrap;html=1;" parent="2GEWoy9SdsrAs0yON6EI-15" vertex="1">
          <mxGeometry x="10" y="380" width="100" height="50" as="geometry" />
        </mxCell>
        <mxCell id="2GEWoy9SdsrAs0yON6EI-43" value="Versandbestätigung versenden" style="rounded=0;whiteSpace=wrap;html=1;fontSize=11;" parent="2GEWoy9SdsrAs0yON6EI-15" vertex="1">
          <mxGeometry x="10" y="450" width="100" height="50" as="geometry" />
        </mxCell>
        <mxCell id="2GEWoy9SdsrAs0yON6EI-16" value="Buchhaltung" style="swimlane;startSize=20;html=1;" parent="2GEWoy9SdsrAs0yON6EI-13" vertex="1">
          <mxGeometry x="240" y="20" width="120" height="640" as="geometry" />
        </mxCell>
        <mxCell id="2GEWoy9SdsrAs0yON6EI-36" value="Rechnung generieren" style="rounded=0;whiteSpace=wrap;html=1;" parent="2GEWoy9SdsrAs0yON6EI-16" vertex="1">
          <mxGeometry x="10" y="270" width="100" height="50" as="geometry" />
        </mxCell>
        <mxCell id="2GEWoy9SdsrAs0yON6EI-28" style="edgeStyle=orthogonalEdgeStyle;rounded=0;orthogonalLoop=1;jettySize=auto;html=1;exitX=0.5;exitY=1;exitDx=0;exitDy=0;entryX=0;entryY=0.5;entryDx=0;entryDy=0;" parent="2GEWoy9SdsrAs0yON6EI-13" source="2GEWoy9SdsrAs0yON6EI-21" target="2GEWoy9SdsrAs0yON6EI-27" edge="1">
          <mxGeometry relative="1" as="geometry" />
        </mxCell>
        <mxCell id="2GEWoy9SdsrAs0yON6EI-37" style="edgeStyle=orthogonalEdgeStyle;rounded=0;orthogonalLoop=1;jettySize=auto;html=1;exitX=1;exitY=0.5;exitDx=0;exitDy=0;entryX=0;entryY=0.5;entryDx=0;entryDy=0;" parent="2GEWoy9SdsrAs0yON6EI-13" source="2GEWoy9SdsrAs0yON6EI-29" target="2GEWoy9SdsrAs0yON6EI-36" edge="1">
          <mxGeometry relative="1" as="geometry" />
        </mxCell>
        <mxCell id="2GEWoy9SdsrAs0yON6EI-39" style="edgeStyle=orthogonalEdgeStyle;rounded=0;orthogonalLoop=1;jettySize=auto;html=1;exitX=0.5;exitY=1;exitDx=0;exitDy=0;entryX=1;entryY=0.5;entryDx=0;entryDy=0;" parent="2GEWoy9SdsrAs0yON6EI-13" source="2GEWoy9SdsrAs0yON6EI-36" target="2GEWoy9SdsrAs0yON6EI-38" edge="1">
          <mxGeometry relative="1" as="geometry" />
        </mxCell>
        <mxCell id="2GEWoy9SdsrAs0yON6EI-42" style="edgeStyle=orthogonalEdgeStyle;rounded=0;orthogonalLoop=1;jettySize=auto;html=1;exitX=0.5;exitY=1;exitDx=0;exitDy=0;entryX=0;entryY=0.5;entryDx=0;entryDy=0;" parent="2GEWoy9SdsrAs0yON6EI-13" source="2GEWoy9SdsrAs0yON6EI-38" target="2GEWoy9SdsrAs0yON6EI-41" edge="1">
          <mxGeometry relative="1" as="geometry" />
        </mxCell>
        <mxCell id="2GEWoy9SdsrAs0yON6EI-46" style="edgeStyle=orthogonalEdgeStyle;rounded=0;orthogonalLoop=1;jettySize=auto;html=1;exitX=0.5;exitY=1;exitDx=0;exitDy=0;entryX=1;entryY=0.5;entryDx=0;entryDy=0;" parent="2GEWoy9SdsrAs0yON6EI-13" source="2GEWoy9SdsrAs0yON6EI-43" target="2GEWoy9SdsrAs0yON6EI-45" edge="1">
          <mxGeometry relative="1" as="geometry" />
        </mxCell>
        <mxCell id="V7lyZfi6LJ3q_QlXbLma-1" value="Reklamationsprozess" style="swimlane;childLayout=stackLayout;resizeParent=1;resizeParentMax=0;startSize=20;html=1;" parent="WIyWlLk6GJQsqaUBKTNV-1" vertex="1">
          <mxGeometry x="480.00000000000045" y="50" width="510" height="920" as="geometry" />
        </mxCell>
        <mxCell id="V7lyZfi6LJ3q_QlXbLma-2" value="Kunde" style="swimlane;startSize=20;html=1;" parent="V7lyZfi6LJ3q_QlXbLma-1" vertex="1">
          <mxGeometry y="20" width="120" height="900" as="geometry">
            <mxRectangle y="20" width="40" height="460" as="alternateBounds" />
          </mxGeometry>
        </mxCell>
        <mxCell id="V7lyZfi6LJ3q_QlXbLma-3" style="edgeStyle=orthogonalEdgeStyle;rounded=0;orthogonalLoop=1;jettySize=auto;html=1;exitX=0.5;exitY=1;exitDx=0;exitDy=0;entryX=0.5;entryY=0;entryDx=0;entryDy=0;" parent="V7lyZfi6LJ3q_QlXbLma-2" target="V7lyZfi6LJ3q_QlXbLma-4" edge="1">
          <mxGeometry relative="1" as="geometry">
            <mxPoint x="60.00000000000006" y="80" as="sourcePoint" />
          </mxGeometry>
        </mxCell>
        <mxCell id="V7lyZfi6LJ3q_QlXbLma-4" value="Reklamation über Online-Portal" style="rounded=0;whiteSpace=wrap;html=1;" parent="V7lyZfi6LJ3q_QlXbLma-2" vertex="1">
          <mxGeometry x="10" y="100" width="100" height="50" as="geometry" />
        </mxCell>
        <mxCell id="V7lyZfi6LJ3q_QlXbLma-5" value="" style="ellipse;whiteSpace=wrap;html=1;aspect=fixed;" parent="V7lyZfi6LJ3q_QlXbLma-2" vertex="1">
          <mxGeometry x="35" y="30" width="50" height="50" as="geometry" />
        </mxCell>
        <mxCell id="V7lyZfi6LJ3q_QlXbLma-40" value="Zurück Sendung des Pakets" style="rounded=0;whiteSpace=wrap;html=1;" parent="V7lyZfi6LJ3q_QlXbLma-2" vertex="1">
          <mxGeometry x="10" y="420" width="100" height="50" as="geometry" />
        </mxCell>
        <mxCell id="V7lyZfi6LJ3q_QlXbLma-60" value="" style="group" parent="V7lyZfi6LJ3q_QlXbLma-2" vertex="1" connectable="0">
          <mxGeometry x="9.999999999999545" y="770" width="100" height="60" as="geometry" />
        </mxCell>
        <mxCell id="V7lyZfi6LJ3q_QlXbLma-0" value="" style="verticalLabelPosition=bottom;verticalAlign=top;html=1;shape=process;whiteSpace=wrap;rounded=1;size=0.14;arcSize=6;" parent="V7lyZfi6LJ3q_QlXbLma-60" vertex="1">
          <mxGeometry width="100" height="60" as="geometry" />
        </mxCell>
        <mxCell id="V7lyZfi6LJ3q_QlXbLma-59" value="Kundenumfrage" style="text;html=1;align=center;verticalAlign=middle;whiteSpace=wrap;rounded=0;fontSize=10;" parent="V7lyZfi6LJ3q_QlXbLma-60" vertex="1">
          <mxGeometry x="20" y="15" width="60" height="30" as="geometry" />
        </mxCell>
        <mxCell id="V7lyZfi6LJ3q_QlXbLma-68" style="edgeStyle=orthogonalEdgeStyle;rounded=0;orthogonalLoop=1;jettySize=auto;html=1;exitX=0.5;exitY=1;exitDx=0;exitDy=0;exitPerimeter=0;entryX=0.5;entryY=0;entryDx=0;entryDy=0;" parent="V7lyZfi6LJ3q_QlXbLma-2" source="V7lyZfi6LJ3q_QlXbLma-63" target="V7lyZfi6LJ3q_QlXbLma-0" edge="1">
          <mxGeometry relative="1" as="geometry" />
        </mxCell>
        <mxCell id="V7lyZfi6LJ3q_QlXbLma-63" value="X" style="strokeWidth=2;html=1;shape=mxgraph.flowchart.decision;whiteSpace=wrap;fontSize=20;" parent="V7lyZfi6LJ3q_QlXbLma-2" vertex="1">
          <mxGeometry x="39.999999999999545" y="705" width="40" height="40" as="geometry" />
        </mxCell>
        <mxCell id="V7lyZfi6LJ3q_QlXbLma-9" value="" style="ellipse;whiteSpace=wrap;html=1;aspect=fixed;labelBorderColor=default;strokeWidth=4;" parent="V7lyZfi6LJ3q_QlXbLma-2" vertex="1">
          <mxGeometry x="40" y="850" width="40" height="40" as="geometry" />
        </mxCell>
        <mxCell id="V7lyZfi6LJ3q_QlXbLma-69" style="edgeStyle=orthogonalEdgeStyle;rounded=0;orthogonalLoop=1;jettySize=auto;html=1;exitX=0.5;exitY=1;exitDx=0;exitDy=0;entryX=0.5;entryY=0;entryDx=0;entryDy=0;" parent="V7lyZfi6LJ3q_QlXbLma-2" source="V7lyZfi6LJ3q_QlXbLma-0" target="V7lyZfi6LJ3q_QlXbLma-9" edge="1">
          <mxGeometry relative="1" as="geometry" />
        </mxCell>
        <mxCell id="V7lyZfi6LJ3q_QlXbLma-10" value="System" style="swimlane;startSize=20;html=1;" parent="V7lyZfi6LJ3q_QlXbLma-1" vertex="1">
          <mxGeometry x="120" y="20" width="130" height="900" as="geometry">
            <mxRectangle x="120" y="20" width="40" height="460" as="alternateBounds" />
          </mxGeometry>
        </mxCell>
        <mxCell id="V7lyZfi6LJ3q_QlXbLma-11" style="edgeStyle=orthogonalEdgeStyle;rounded=0;orthogonalLoop=1;jettySize=auto;html=1;exitX=0.5;exitY=1;exitDx=0;exitDy=0;entryX=0.5;entryY=0;entryDx=0;entryDy=0;" parent="V7lyZfi6LJ3q_QlXbLma-10" source="V7lyZfi6LJ3q_QlXbLma-15" target="V7lyZfi6LJ3q_QlXbLma-16" edge="1">
          <mxGeometry relative="1" as="geometry" />
        </mxCell>
        <mxCell id="V7lyZfi6LJ3q_QlXbLma-12" value="Ja" style="edgeLabel;html=1;align=center;verticalAlign=middle;resizable=0;points=[];" parent="V7lyZfi6LJ3q_QlXbLma-11" vertex="1" connectable="0">
          <mxGeometry x="-0.1984" y="-3" relative="1" as="geometry">
            <mxPoint as="offset" />
          </mxGeometry>
        </mxCell>
        <mxCell id="V7lyZfi6LJ3q_QlXbLma-13" style="edgeStyle=orthogonalEdgeStyle;rounded=0;orthogonalLoop=1;jettySize=auto;html=1;exitX=0.5;exitY=0;exitDx=0;exitDy=0;entryX=0.5;entryY=1;entryDx=0;entryDy=0;" parent="V7lyZfi6LJ3q_QlXbLma-10" source="V7lyZfi6LJ3q_QlXbLma-15" target="V7lyZfi6LJ3q_QlXbLma-17" edge="1">
          <mxGeometry relative="1" as="geometry" />
        </mxCell>
        <mxCell id="V7lyZfi6LJ3q_QlXbLma-14" value="Nein" style="edgeLabel;html=1;align=center;verticalAlign=middle;resizable=0;points=[];" parent="V7lyZfi6LJ3q_QlXbLma-13" vertex="1" connectable="0">
          <mxGeometry x="-0.3333" y="1" relative="1" as="geometry">
            <mxPoint x="1" y="3" as="offset" />
          </mxGeometry>
        </mxCell>
        <mxCell id="V7lyZfi6LJ3q_QlXbLma-15" value="Reklamation Vollständig?" style="rhombus;whiteSpace=wrap;html=1;fontSize=10;" parent="V7lyZfi6LJ3q_QlXbLma-10" vertex="1">
          <mxGeometry x="10" y="170" width="100" height="80" as="geometry" />
        </mxCell>
        <mxCell id="V7lyZfi6LJ3q_QlXbLma-16" value="Weiterleitung" style="rounded=0;whiteSpace=wrap;html=1;" parent="V7lyZfi6LJ3q_QlXbLma-10" vertex="1">
          <mxGeometry x="10" y="270" width="100" height="50" as="geometry" />
        </mxCell>
        <mxCell id="V7lyZfi6LJ3q_QlXbLma-17" value="Korrigieren und neu einreichen" style="rounded=0;whiteSpace=wrap;html=1;" parent="V7lyZfi6LJ3q_QlXbLma-10" vertex="1">
          <mxGeometry x="10" y="100" width="100" height="50" as="geometry" />
        </mxCell>
        <mxCell id="V7lyZfi6LJ3q_QlXbLma-46" value="Neu-Bestellung" style="rounded=0;whiteSpace=wrap;html=1;" parent="V7lyZfi6LJ3q_QlXbLma-10" vertex="1">
          <mxGeometry x="15" y="610" width="100" height="50" as="geometry" />
        </mxCell>
        <mxCell id="V7lyZfi6LJ3q_QlXbLma-23" style="edgeStyle=orthogonalEdgeStyle;rounded=0;orthogonalLoop=1;jettySize=auto;html=1;exitX=0.5;exitY=1;exitDx=0;exitDy=0;entryX=0;entryY=0.5;entryDx=0;entryDy=0;" parent="V7lyZfi6LJ3q_QlXbLma-1" source="V7lyZfi6LJ3q_QlXbLma-4" target="V7lyZfi6LJ3q_QlXbLma-15" edge="1">
          <mxGeometry relative="1" as="geometry" />
        </mxCell>
        <mxCell id="V7lyZfi6LJ3q_QlXbLma-28" style="edgeStyle=orthogonalEdgeStyle;rounded=0;orthogonalLoop=1;jettySize=auto;html=1;entryX=1;entryY=0.5;entryDx=0;entryDy=0;" parent="V7lyZfi6LJ3q_QlXbLma-1" source="V7lyZfi6LJ3q_QlXbLma-17" target="V7lyZfi6LJ3q_QlXbLma-4" edge="1">
          <mxGeometry relative="1" as="geometry" />
        </mxCell>
        <mxCell id="V7lyZfi6LJ3q_QlXbLma-41" style="edgeStyle=orthogonalEdgeStyle;rounded=0;orthogonalLoop=1;jettySize=auto;html=1;entryX=1;entryY=0.5;entryDx=0;entryDy=0;" parent="V7lyZfi6LJ3q_QlXbLma-1" source="V7lyZfi6LJ3q_QlXbLma-35" target="V7lyZfi6LJ3q_QlXbLma-40" edge="1">
          <mxGeometry relative="1" as="geometry" />
        </mxCell>
        <mxCell id="V7lyZfi6LJ3q_QlXbLma-47" style="edgeStyle=orthogonalEdgeStyle;rounded=0;orthogonalLoop=1;jettySize=auto;html=1;entryX=1;entryY=0.5;entryDx=0;entryDy=0;" parent="V7lyZfi6LJ3q_QlXbLma-1" source="V7lyZfi6LJ3q_QlXbLma-39" target="V7lyZfi6LJ3q_QlXbLma-46" edge="1">
          <mxGeometry relative="1" as="geometry" />
        </mxCell>
        <mxCell id="V7lyZfi6LJ3q_QlXbLma-51" value="E" style="edgeLabel;html=1;align=center;verticalAlign=middle;resizable=0;points=[];" parent="V7lyZfi6LJ3q_QlXbLma-47" vertex="1" connectable="0">
          <mxGeometry x="0.068" y="-1" relative="1" as="geometry">
            <mxPoint x="3" y="-6" as="offset" />
          </mxGeometry>
        </mxCell>
        <mxCell id="V7lyZfi6LJ3q_QlXbLma-66" style="edgeStyle=orthogonalEdgeStyle;rounded=0;orthogonalLoop=1;jettySize=auto;html=1;exitX=0;exitY=0.5;exitDx=0;exitDy=0;entryX=1;entryY=0.5;entryDx=0;entryDy=0;entryPerimeter=0;" parent="V7lyZfi6LJ3q_QlXbLma-1" source="V7lyZfi6LJ3q_QlXbLma-45" target="V7lyZfi6LJ3q_QlXbLma-63" edge="1">
          <mxGeometry relative="1" as="geometry" />
        </mxCell>
        <mxCell id="V7lyZfi6LJ3q_QlXbLma-67" style="edgeStyle=orthogonalEdgeStyle;rounded=0;orthogonalLoop=1;jettySize=auto;html=1;exitX=0;exitY=0.5;exitDx=0;exitDy=0;entryX=0.5;entryY=0;entryDx=0;entryDy=0;entryPerimeter=0;" parent="V7lyZfi6LJ3q_QlXbLma-1" source="V7lyZfi6LJ3q_QlXbLma-46" target="V7lyZfi6LJ3q_QlXbLma-63" edge="1">
          <mxGeometry relative="1" as="geometry" />
        </mxCell>
        <mxCell id="V7lyZfi6LJ3q_QlXbLma-75" style="edgeStyle=orthogonalEdgeStyle;rounded=0;orthogonalLoop=1;jettySize=auto;html=1;exitX=1;exitY=0.5;exitDx=0;exitDy=0;entryX=0;entryY=0.5;entryDx=0;entryDy=0;" parent="V7lyZfi6LJ3q_QlXbLma-1" source="V7lyZfi6LJ3q_QlXbLma-16" target="V7lyZfi6LJ3q_QlXbLma-71" edge="1">
          <mxGeometry relative="1" as="geometry" />
        </mxCell>
        <mxCell id="V7lyZfi6LJ3q_QlXbLma-139" style="edgeStyle=orthogonalEdgeStyle;rounded=0;orthogonalLoop=1;jettySize=auto;html=1;exitX=0.5;exitY=1;exitDx=0;exitDy=0;entryX=0;entryY=0.5;entryDx=0;entryDy=0;" parent="V7lyZfi6LJ3q_QlXbLma-1" source="V7lyZfi6LJ3q_QlXbLma-40" target="V7lyZfi6LJ3q_QlXbLma-106" edge="1">
          <mxGeometry relative="1" as="geometry" />
        </mxCell>
        <mxCell id="V7lyZfi6LJ3q_QlXbLma-21" value="Reklamationsteam" style="swimlane;startSize=20;html=1;" parent="V7lyZfi6LJ3q_QlXbLma-1" vertex="1">
          <mxGeometry x="250" y="20" width="260" height="900" as="geometry" />
        </mxCell>
        <mxCell id="V7lyZfi6LJ3q_QlXbLma-32" style="edgeStyle=orthogonalEdgeStyle;rounded=0;orthogonalLoop=1;jettySize=auto;html=1;exitX=0.5;exitY=0;exitDx=0;exitDy=0;entryX=1;entryY=0.5;entryDx=0;entryDy=0;" parent="V7lyZfi6LJ3q_QlXbLma-21" source="V7lyZfi6LJ3q_QlXbLma-29" target="V7lyZfi6LJ3q_QlXbLma-31" edge="1">
          <mxGeometry relative="1" as="geometry" />
        </mxCell>
        <mxCell id="V7lyZfi6LJ3q_QlXbLma-56" value="Nein" style="edgeLabel;html=1;align=center;verticalAlign=middle;resizable=0;points=[];" parent="V7lyZfi6LJ3q_QlXbLma-32" vertex="1" connectable="0">
          <mxGeometry x="-0.0885" y="3" relative="1" as="geometry">
            <mxPoint x="14" y="-3" as="offset" />
          </mxGeometry>
        </mxCell>
        <mxCell id="V7lyZfi6LJ3q_QlXbLma-36" style="edgeStyle=orthogonalEdgeStyle;rounded=0;orthogonalLoop=1;jettySize=auto;html=1;entryX=1;entryY=0.5;entryDx=0;entryDy=0;exitX=0.5;exitY=1;exitDx=0;exitDy=0;" parent="V7lyZfi6LJ3q_QlXbLma-21" source="V7lyZfi6LJ3q_QlXbLma-29" target="V7lyZfi6LJ3q_QlXbLma-35" edge="1">
          <mxGeometry relative="1" as="geometry" />
        </mxCell>
        <mxCell id="V7lyZfi6LJ3q_QlXbLma-57" value="Ja" style="edgeLabel;html=1;align=center;verticalAlign=middle;resizable=0;points=[];" parent="V7lyZfi6LJ3q_QlXbLma-36" vertex="1" connectable="0">
          <mxGeometry x="-0.4537" y="2" relative="1" as="geometry">
            <mxPoint as="offset" />
          </mxGeometry>
        </mxCell>
        <mxCell id="V7lyZfi6LJ3q_QlXbLma-29" value="Reklamation Gerecht?" style="rhombus;whiteSpace=wrap;html=1;fontSize=10;" parent="V7lyZfi6LJ3q_QlXbLma-21" vertex="1">
          <mxGeometry x="150" y="255" width="100" height="80" as="geometry" />
        </mxCell>
        <mxCell id="V7lyZfi6LJ3q_QlXbLma-34" style="edgeStyle=orthogonalEdgeStyle;rounded=0;orthogonalLoop=1;jettySize=auto;html=1;entryX=0.5;entryY=1;entryDx=0;entryDy=0;" parent="V7lyZfi6LJ3q_QlXbLma-21" source="V7lyZfi6LJ3q_QlXbLma-31" target="V7lyZfi6LJ3q_QlXbLma-33" edge="1">
          <mxGeometry relative="1" as="geometry">
            <mxPoint x="64.99999999999955" y="150" as="targetPoint" />
          </mxGeometry>
        </mxCell>
        <mxCell id="V7lyZfi6LJ3q_QlXbLma-31" value="Information an Kunde" style="rounded=0;whiteSpace=wrap;html=1;" parent="V7lyZfi6LJ3q_QlXbLma-21" vertex="1">
          <mxGeometry x="15" y="185" width="100" height="50" as="geometry" />
        </mxCell>
        <mxCell id="V7lyZfi6LJ3q_QlXbLma-33" value="" style="ellipse;whiteSpace=wrap;html=1;aspect=fixed;labelBorderColor=default;strokeWidth=4;" parent="V7lyZfi6LJ3q_QlXbLma-21" vertex="1">
          <mxGeometry x="45" y="100" width="40" height="40" as="geometry" />
        </mxCell>
        <mxCell id="V7lyZfi6LJ3q_QlXbLma-35" value="Information an Kunde" style="rounded=0;whiteSpace=wrap;html=1;" parent="V7lyZfi6LJ3q_QlXbLma-21" vertex="1">
          <mxGeometry x="15" y="360" width="100" height="50" as="geometry" />
        </mxCell>
        <mxCell id="V7lyZfi6LJ3q_QlXbLma-48" style="edgeStyle=orthogonalEdgeStyle;rounded=0;orthogonalLoop=1;jettySize=auto;html=1;exitX=0.5;exitY=1;exitDx=0;exitDy=0;entryX=0.5;entryY=0;entryDx=0;entryDy=0;" parent="V7lyZfi6LJ3q_QlXbLma-21" source="V7lyZfi6LJ3q_QlXbLma-44" target="V7lyZfi6LJ3q_QlXbLma-39" edge="1">
          <mxGeometry relative="1" as="geometry">
            <Array as="points">
              <mxPoint x="200" y="580" />
              <mxPoint x="65" y="580" />
            </Array>
          </mxGeometry>
        </mxCell>
        <mxCell id="V7lyZfi6LJ3q_QlXbLma-52" value="Ja" style="edgeLabel;html=1;align=center;verticalAlign=middle;resizable=0;points=[];" parent="V7lyZfi6LJ3q_QlXbLma-48" vertex="1" connectable="0">
          <mxGeometry x="-0.0483" y="-3" relative="1" as="geometry">
            <mxPoint as="offset" />
          </mxGeometry>
        </mxCell>
        <mxCell id="V7lyZfi6LJ3q_QlXbLma-54" style="edgeStyle=orthogonalEdgeStyle;rounded=0;orthogonalLoop=1;jettySize=auto;html=1;exitX=0.5;exitY=0;exitDx=0;exitDy=0;entryX=1;entryY=0.5;entryDx=0;entryDy=0;" parent="V7lyZfi6LJ3q_QlXbLma-21" source="V7lyZfi6LJ3q_QlXbLma-44" target="V7lyZfi6LJ3q_QlXbLma-53" edge="1">
          <mxGeometry relative="1" as="geometry">
            <Array as="points">
              <mxPoint x="200" y="445" />
            </Array>
          </mxGeometry>
        </mxCell>
        <mxCell id="V7lyZfi6LJ3q_QlXbLma-55" value="Nein" style="edgeLabel;html=1;align=center;verticalAlign=middle;resizable=0;points=[];" parent="V7lyZfi6LJ3q_QlXbLma-54" vertex="1" connectable="0">
          <mxGeometry x="-0.3413" y="4" relative="1" as="geometry">
            <mxPoint as="offset" />
          </mxGeometry>
        </mxCell>
        <mxCell id="V7lyZfi6LJ3q_QlXbLma-44" value="&lt;span style=&quot;font-size: 12px;&quot;&gt;Prüfung Paket i.o.&lt;/span&gt;" style="rhombus;whiteSpace=wrap;html=1;fontSize=10;" parent="V7lyZfi6LJ3q_QlXbLma-21" vertex="1">
          <mxGeometry x="150" y="494" width="100" height="80" as="geometry" />
        </mxCell>
        <mxCell id="V7lyZfi6LJ3q_QlXbLma-49" style="edgeStyle=orthogonalEdgeStyle;rounded=0;orthogonalLoop=1;jettySize=auto;html=1;exitX=0.5;exitY=1;exitDx=0;exitDy=0;entryX=0.5;entryY=0;entryDx=0;entryDy=0;" parent="V7lyZfi6LJ3q_QlXbLma-21" source="V7lyZfi6LJ3q_QlXbLma-39" target="V7lyZfi6LJ3q_QlXbLma-45" edge="1">
          <mxGeometry relative="1" as="geometry" />
        </mxCell>
        <mxCell id="V7lyZfi6LJ3q_QlXbLma-50" value="R" style="edgeLabel;html=1;align=center;verticalAlign=middle;resizable=0;points=[];" parent="V7lyZfi6LJ3q_QlXbLma-49" vertex="1" connectable="0">
          <mxGeometry x="-0.3165" y="-3" relative="1" as="geometry">
            <mxPoint as="offset" />
          </mxGeometry>
        </mxCell>
        <mxCell id="V7lyZfi6LJ3q_QlXbLma-39" value="Erstattung oder Rücksendung?" style="rhombus;whiteSpace=wrap;html=1;fontSize=10;" parent="V7lyZfi6LJ3q_QlXbLma-21" vertex="1">
          <mxGeometry x="15" y="595" width="100" height="80" as="geometry" />
        </mxCell>
        <mxCell id="V7lyZfi6LJ3q_QlXbLma-45" value="Rückerstattung" style="rounded=0;whiteSpace=wrap;html=1;" parent="V7lyZfi6LJ3q_QlXbLma-21" vertex="1">
          <mxGeometry x="15" y="700" width="100" height="50" as="geometry" />
        </mxCell>
        <mxCell id="V7lyZfi6LJ3q_QlXbLma-53" value="" style="ellipse;whiteSpace=wrap;html=1;aspect=fixed;labelBorderColor=default;strokeWidth=4;" parent="V7lyZfi6LJ3q_QlXbLma-21" vertex="1">
          <mxGeometry x="45" y="425" width="40" height="40" as="geometry" />
        </mxCell>
        <mxCell id="V7lyZfi6LJ3q_QlXbLma-70" value="" style="group" parent="V7lyZfi6LJ3q_QlXbLma-21" vertex="1" connectable="0">
          <mxGeometry x="15" y="270" width="100" height="60" as="geometry" />
        </mxCell>
        <mxCell id="V7lyZfi6LJ3q_QlXbLma-71" value="" style="verticalLabelPosition=bottom;verticalAlign=top;html=1;shape=process;whiteSpace=wrap;rounded=1;size=0.14;arcSize=6;" parent="V7lyZfi6LJ3q_QlXbLma-70" vertex="1">
          <mxGeometry y="-5" width="100" height="60" as="geometry" />
        </mxCell>
        <mxCell id="V7lyZfi6LJ3q_QlXbLma-72" value="Abstimmung" style="text;html=1;align=center;verticalAlign=middle;whiteSpace=wrap;rounded=0;fontSize=10;" parent="V7lyZfi6LJ3q_QlXbLma-70" vertex="1">
          <mxGeometry x="20" y="10" width="60" height="30" as="geometry" />
        </mxCell>
        <mxCell id="V7lyZfi6LJ3q_QlXbLma-78" style="edgeStyle=orthogonalEdgeStyle;rounded=0;orthogonalLoop=1;jettySize=auto;html=1;exitX=1;exitY=0.5;exitDx=0;exitDy=0;entryX=0;entryY=0.5;entryDx=0;entryDy=0;" parent="V7lyZfi6LJ3q_QlXbLma-21" source="V7lyZfi6LJ3q_QlXbLma-71" target="V7lyZfi6LJ3q_QlXbLma-29" edge="1">
          <mxGeometry relative="1" as="geometry" />
        </mxCell>
        <mxCell id="V7lyZfi6LJ3q_QlXbLma-105" value="" style="group" parent="V7lyZfi6LJ3q_QlXbLma-21" vertex="1" connectable="0">
          <mxGeometry x="14.999999999999545" y="504" width="100" height="60" as="geometry" />
        </mxCell>
        <mxCell id="V7lyZfi6LJ3q_QlXbLma-106" value="" style="verticalLabelPosition=bottom;verticalAlign=top;html=1;shape=process;whiteSpace=wrap;rounded=1;size=0.14;arcSize=6;" parent="V7lyZfi6LJ3q_QlXbLma-105" vertex="1">
          <mxGeometry width="100" height="60" as="geometry" />
        </mxCell>
        <mxCell id="V7lyZfi6LJ3q_QlXbLma-107" value="&lt;span style=&quot;font-size: 12px;&quot;&gt;Prüfung Paket i.o.&lt;/span&gt;" style="text;html=1;align=center;verticalAlign=middle;whiteSpace=wrap;rounded=0;fontSize=10;" parent="V7lyZfi6LJ3q_QlXbLma-105" vertex="1">
          <mxGeometry x="20" y="15" width="60" height="30" as="geometry" />
        </mxCell>
        <mxCell id="V7lyZfi6LJ3q_QlXbLma-138" style="edgeStyle=orthogonalEdgeStyle;rounded=0;orthogonalLoop=1;jettySize=auto;html=1;exitX=1;exitY=0.5;exitDx=0;exitDy=0;entryX=0;entryY=0.5;entryDx=0;entryDy=0;" parent="V7lyZfi6LJ3q_QlXbLma-21" source="V7lyZfi6LJ3q_QlXbLma-106" target="V7lyZfi6LJ3q_QlXbLma-44" edge="1">
          <mxGeometry relative="1" as="geometry" />
        </mxCell>
        <mxCell id="V7lyZfi6LJ3q_QlXbLma-140" value="" style="edgeStyle=orthogonalEdgeStyle;rounded=0;orthogonalLoop=1;jettySize=auto;html=1;" parent="V7lyZfi6LJ3q_QlXbLma-1" source="V7lyZfi6LJ3q_QlXbLma-39" target="V7lyZfi6LJ3q_QlXbLma-46" edge="1">
          <mxGeometry relative="1" as="geometry" />
        </mxCell>
        <mxCell id="V7lyZfi6LJ3q_QlXbLma-79" value="" style="ellipse;whiteSpace=wrap;html=1;aspect=fixed;" parent="WIyWlLk6GJQsqaUBKTNV-1" vertex="1">
          <mxGeometry x="1060.0000000000005" y="110" width="50" height="50" as="geometry" />
        </mxCell>
        <mxCell id="V7lyZfi6LJ3q_QlXbLma-81" value="" style="group" parent="WIyWlLk6GJQsqaUBKTNV-1" vertex="1" connectable="0">
          <mxGeometry x="1030.0000000000005" y="110" width="100" height="60" as="geometry" />
        </mxCell>
        <mxCell id="V7lyZfi6LJ3q_QlXbLma-82" value="" style="verticalLabelPosition=bottom;verticalAlign=top;html=1;shape=process;whiteSpace=wrap;rounded=1;size=0.14;arcSize=6;" parent="V7lyZfi6LJ3q_QlXbLma-81" vertex="1">
          <mxGeometry y="-5" width="100" height="60" as="geometry" />
        </mxCell>
        <mxCell id="V7lyZfi6LJ3q_QlXbLma-83" value="Abstimmung" style="text;html=1;align=center;verticalAlign=middle;whiteSpace=wrap;rounded=0;fontSize=10;" parent="V7lyZfi6LJ3q_QlXbLma-81" vertex="1">
          <mxGeometry x="20" y="10" width="60" height="30" as="geometry" />
        </mxCell>
        <mxCell id="V7lyZfi6LJ3q_QlXbLma-89" style="edgeStyle=orthogonalEdgeStyle;rounded=0;orthogonalLoop=1;jettySize=auto;html=1;exitX=0.5;exitY=1;exitDx=0;exitDy=0;entryX=0.5;entryY=0;entryDx=0;entryDy=0;" parent="WIyWlLk6GJQsqaUBKTNV-1" source="V7lyZfi6LJ3q_QlXbLma-84" target="V7lyZfi6LJ3q_QlXbLma-85" edge="1">
          <mxGeometry relative="1" as="geometry" />
        </mxCell>
        <mxCell id="V7lyZfi6LJ3q_QlXbLma-84" value="Besprechung im Team" style="rounded=0;whiteSpace=wrap;html=1;" parent="WIyWlLk6GJQsqaUBKTNV-1" vertex="1">
          <mxGeometry x="1030.0000000000005" y="190" width="100" height="50" as="geometry" />
        </mxCell>
        <mxCell id="V7lyZfi6LJ3q_QlXbLma-90" style="edgeStyle=orthogonalEdgeStyle;rounded=0;orthogonalLoop=1;jettySize=auto;html=1;exitX=0.5;exitY=1;exitDx=0;exitDy=0;entryX=0.5;entryY=0;entryDx=0;entryDy=0;" parent="WIyWlLk6GJQsqaUBKTNV-1" source="V7lyZfi6LJ3q_QlXbLma-85" target="V7lyZfi6LJ3q_QlXbLma-86" edge="1">
          <mxGeometry relative="1" as="geometry" />
        </mxCell>
        <mxCell id="V7lyZfi6LJ3q_QlXbLma-85" value="Fakten analyse" style="rounded=0;whiteSpace=wrap;html=1;" parent="WIyWlLk6GJQsqaUBKTNV-1" vertex="1">
          <mxGeometry x="1030.0000000000005" y="260" width="100" height="50" as="geometry" />
        </mxCell>
        <mxCell id="V7lyZfi6LJ3q_QlXbLma-86" value="Abstimmung Team" style="rounded=0;whiteSpace=wrap;html=1;" parent="WIyWlLk6GJQsqaUBKTNV-1" vertex="1">
          <mxGeometry x="1030.0000000000005" y="330" width="100" height="50" as="geometry" />
        </mxCell>
        <mxCell id="V7lyZfi6LJ3q_QlXbLma-88" style="edgeStyle=orthogonalEdgeStyle;rounded=0;orthogonalLoop=1;jettySize=auto;html=1;exitX=0.5;exitY=1;exitDx=0;exitDy=0;entryX=0.5;entryY=0;entryDx=0;entryDy=0;" parent="WIyWlLk6GJQsqaUBKTNV-1" source="V7lyZfi6LJ3q_QlXbLma-82" target="V7lyZfi6LJ3q_QlXbLma-84" edge="1">
          <mxGeometry relative="1" as="geometry" />
        </mxCell>
        <mxCell id="V7lyZfi6LJ3q_QlXbLma-91" value="" style="ellipse;whiteSpace=wrap;html=1;aspect=fixed;" parent="WIyWlLk6GJQsqaUBKTNV-1" vertex="1">
          <mxGeometry x="1200.0000000000005" y="110" width="50" height="50" as="geometry" />
        </mxCell>
        <mxCell id="V7lyZfi6LJ3q_QlXbLma-92" value="" style="group" parent="WIyWlLk6GJQsqaUBKTNV-1" vertex="1" connectable="0">
          <mxGeometry x="1170.0000000000005" y="110" width="100" height="60" as="geometry" />
        </mxCell>
        <mxCell id="V7lyZfi6LJ3q_QlXbLma-93" value="" style="verticalLabelPosition=bottom;verticalAlign=top;html=1;shape=process;whiteSpace=wrap;rounded=1;size=0.14;arcSize=6;" parent="V7lyZfi6LJ3q_QlXbLma-92" vertex="1">
          <mxGeometry y="-5" width="100" height="60" as="geometry" />
        </mxCell>
        <mxCell id="V7lyZfi6LJ3q_QlXbLma-94" value="Kundenumfrage" style="text;html=1;align=center;verticalAlign=middle;whiteSpace=wrap;rounded=0;fontSize=10;" parent="V7lyZfi6LJ3q_QlXbLma-92" vertex="1">
          <mxGeometry x="20" y="10" width="60" height="30" as="geometry" />
        </mxCell>
        <mxCell id="V7lyZfi6LJ3q_QlXbLma-95" style="edgeStyle=orthogonalEdgeStyle;rounded=0;orthogonalLoop=1;jettySize=auto;html=1;exitX=0.5;exitY=1;exitDx=0;exitDy=0;entryX=0.5;entryY=0;entryDx=0;entryDy=0;" parent="WIyWlLk6GJQsqaUBKTNV-1" source="V7lyZfi6LJ3q_QlXbLma-96" edge="1">
          <mxGeometry relative="1" as="geometry">
            <mxPoint x="1220.0000000000005" y="260" as="targetPoint" />
          </mxGeometry>
        </mxCell>
        <mxCell id="V7lyZfi6LJ3q_QlXbLma-96" value="Email Umfrage" style="rounded=0;whiteSpace=wrap;html=1;" parent="WIyWlLk6GJQsqaUBKTNV-1" vertex="1">
          <mxGeometry x="1170.0000000000005" y="190" width="100" height="50" as="geometry" />
        </mxCell>
        <mxCell id="V7lyZfi6LJ3q_QlXbLma-100" style="edgeStyle=orthogonalEdgeStyle;rounded=0;orthogonalLoop=1;jettySize=auto;html=1;exitX=0.5;exitY=1;exitDx=0;exitDy=0;entryX=0.5;entryY=0;entryDx=0;entryDy=0;" parent="WIyWlLk6GJQsqaUBKTNV-1" source="V7lyZfi6LJ3q_QlXbLma-93" target="V7lyZfi6LJ3q_QlXbLma-96" edge="1">
          <mxGeometry relative="1" as="geometry" />
        </mxCell>
        <mxCell id="V7lyZfi6LJ3q_QlXbLma-108" value="" style="ellipse;whiteSpace=wrap;html=1;aspect=fixed;" parent="WIyWlLk6GJQsqaUBKTNV-1" vertex="1">
          <mxGeometry x="1330.0000000000005" y="110" width="50" height="50" as="geometry" />
        </mxCell>
        <mxCell id="V7lyZfi6LJ3q_QlXbLma-109" value="" style="group" parent="WIyWlLk6GJQsqaUBKTNV-1" vertex="1" connectable="0">
          <mxGeometry x="1300.0000000000005" y="110" width="100" height="60" as="geometry" />
        </mxCell>
        <mxCell id="V7lyZfi6LJ3q_QlXbLma-110" value="" style="verticalLabelPosition=bottom;verticalAlign=top;html=1;shape=process;whiteSpace=wrap;rounded=1;size=0.14;arcSize=6;" parent="V7lyZfi6LJ3q_QlXbLma-109" vertex="1">
          <mxGeometry y="-5" width="100" height="60" as="geometry" />
        </mxCell>
        <mxCell id="V7lyZfi6LJ3q_QlXbLma-111" value="Prüfung Paket i.o." style="text;html=1;align=center;verticalAlign=middle;whiteSpace=wrap;rounded=0;fontSize=10;" parent="V7lyZfi6LJ3q_QlXbLma-109" vertex="1">
          <mxGeometry x="20" y="10" width="60" height="30" as="geometry" />
        </mxCell>
        <mxCell id="V7lyZfi6LJ3q_QlXbLma-117" style="edgeStyle=orthogonalEdgeStyle;rounded=0;orthogonalLoop=1;jettySize=auto;html=1;exitX=0.5;exitY=1;exitDx=0;exitDy=0;entryX=0.5;entryY=0;entryDx=0;entryDy=0;" parent="WIyWlLk6GJQsqaUBKTNV-1" source="V7lyZfi6LJ3q_QlXbLma-110" edge="1">
          <mxGeometry relative="1" as="geometry">
            <mxPoint x="1350.0000000000005" y="190" as="targetPoint" />
          </mxGeometry>
        </mxCell>
        <mxCell id="V7lyZfi6LJ3q_QlXbLma-129" style="edgeStyle=orthogonalEdgeStyle;rounded=0;orthogonalLoop=1;jettySize=auto;html=1;exitX=0.5;exitY=1;exitDx=0;exitDy=0;entryX=0.5;entryY=0;entryDx=0;entryDy=0;" parent="WIyWlLk6GJQsqaUBKTNV-1" source="V7lyZfi6LJ3q_QlXbLma-122" target="V7lyZfi6LJ3q_QlXbLma-124" edge="1">
          <mxGeometry relative="1" as="geometry" />
        </mxCell>
        <mxCell id="V7lyZfi6LJ3q_QlXbLma-122" value="&lt;span style=&quot;font-size: 9px;&quot;&gt;Identifikations Frage&lt;/span&gt;" style="rhombus;whiteSpace=wrap;html=1;fontSize=9;" parent="WIyWlLk6GJQsqaUBKTNV-1" vertex="1">
          <mxGeometry x="1170" y="330" width="100" height="50" as="geometry" />
        </mxCell>
        <mxCell id="V7lyZfi6LJ3q_QlXbLma-128" style="edgeStyle=orthogonalEdgeStyle;rounded=0;orthogonalLoop=1;jettySize=auto;html=1;exitX=0.5;exitY=1;exitDx=0;exitDy=0;entryX=0.5;entryY=0;entryDx=0;entryDy=0;" parent="WIyWlLk6GJQsqaUBKTNV-1" source="V7lyZfi6LJ3q_QlXbLma-123" target="V7lyZfi6LJ3q_QlXbLma-122" edge="1">
          <mxGeometry relative="1" as="geometry" />
        </mxCell>
        <mxCell id="V7lyZfi6LJ3q_QlXbLma-123" value="&lt;span style=&quot;font-size: 9px;&quot;&gt;Identifikations Frage&lt;/span&gt;" style="rhombus;whiteSpace=wrap;html=1;fontSize=9;" parent="WIyWlLk6GJQsqaUBKTNV-1" vertex="1">
          <mxGeometry x="1170" y="260" width="100" height="50" as="geometry" />
        </mxCell>
        <mxCell id="V7lyZfi6LJ3q_QlXbLma-130" style="edgeStyle=orthogonalEdgeStyle;rounded=0;orthogonalLoop=1;jettySize=auto;html=1;exitX=0.5;exitY=1;exitDx=0;exitDy=0;entryX=0.5;entryY=0;entryDx=0;entryDy=0;" parent="WIyWlLk6GJQsqaUBKTNV-1" source="V7lyZfi6LJ3q_QlXbLma-124" target="V7lyZfi6LJ3q_QlXbLma-125" edge="1">
          <mxGeometry relative="1" as="geometry" />
        </mxCell>
        <mxCell id="V7lyZfi6LJ3q_QlXbLma-124" value="&lt;span style=&quot;font-size: 8px;&quot;&gt;Beziehungs Frage (zur firma)&lt;/span&gt;" style="rhombus;whiteSpace=wrap;html=1;fontSize=8;" parent="WIyWlLk6GJQsqaUBKTNV-1" vertex="1">
          <mxGeometry x="1170" y="400" width="100" height="50" as="geometry" />
        </mxCell>
        <mxCell id="V7lyZfi6LJ3q_QlXbLma-131" style="edgeStyle=orthogonalEdgeStyle;rounded=0;orthogonalLoop=1;jettySize=auto;html=1;exitX=0.5;exitY=1;exitDx=0;exitDy=0;entryX=0.5;entryY=0;entryDx=0;entryDy=0;" parent="WIyWlLk6GJQsqaUBKTNV-1" source="V7lyZfi6LJ3q_QlXbLma-125" target="V7lyZfi6LJ3q_QlXbLma-126" edge="1">
          <mxGeometry relative="1" as="geometry" />
        </mxCell>
        <mxCell id="V7lyZfi6LJ3q_QlXbLma-125" value="&lt;span style=&quot;font-size: 9px;&quot;&gt;Leistung Firma&lt;/span&gt;" style="rhombus;whiteSpace=wrap;html=1;fontSize=9;" parent="WIyWlLk6GJQsqaUBKTNV-1" vertex="1">
          <mxGeometry x="1170" y="470" width="100" height="50" as="geometry" />
        </mxCell>
        <mxCell id="V7lyZfi6LJ3q_QlXbLma-126" value="&lt;span style=&quot;font-size: 9px;&quot;&gt;Weiterempfehlung&lt;/span&gt;" style="rhombus;whiteSpace=wrap;html=1;fontSize=9;" parent="WIyWlLk6GJQsqaUBKTNV-1" vertex="1">
          <mxGeometry x="1170" y="540" width="100" height="50" as="geometry" />
        </mxCell>
        <mxCell id="V7lyZfi6LJ3q_QlXbLma-127" style="edgeStyle=orthogonalEdgeStyle;rounded=0;orthogonalLoop=1;jettySize=auto;html=1;exitX=0.5;exitY=1;exitDx=0;exitDy=0;" parent="WIyWlLk6GJQsqaUBKTNV-1" source="V7lyZfi6LJ3q_QlXbLma-126" target="V7lyZfi6LJ3q_QlXbLma-126" edge="1">
          <mxGeometry relative="1" as="geometry" />
        </mxCell>
        <mxCell id="V7lyZfi6LJ3q_QlXbLma-136" style="edgeStyle=orthogonalEdgeStyle;rounded=0;orthogonalLoop=1;jettySize=auto;html=1;exitX=0.5;exitY=1;exitDx=0;exitDy=0;entryX=0.5;entryY=0;entryDx=0;entryDy=0;" parent="WIyWlLk6GJQsqaUBKTNV-1" source="V7lyZfi6LJ3q_QlXbLma-132" target="V7lyZfi6LJ3q_QlXbLma-133" edge="1">
          <mxGeometry relative="1" as="geometry" />
        </mxCell>
        <mxCell id="V7lyZfi6LJ3q_QlXbLma-132" value="&lt;span style=&quot;font-size: 12px;&quot;&gt;Paket verpackt&lt;/span&gt;" style="rhombus;whiteSpace=wrap;html=1;fontSize=9;" parent="WIyWlLk6GJQsqaUBKTNV-1" vertex="1">
          <mxGeometry x="1300" y="190" width="100" height="50" as="geometry" />
        </mxCell>
        <mxCell id="V7lyZfi6LJ3q_QlXbLma-137" style="edgeStyle=orthogonalEdgeStyle;rounded=0;orthogonalLoop=1;jettySize=auto;html=1;exitX=0.5;exitY=1;exitDx=0;exitDy=0;entryX=0.5;entryY=0;entryDx=0;entryDy=0;" parent="WIyWlLk6GJQsqaUBKTNV-1" source="V7lyZfi6LJ3q_QlXbLma-133" target="V7lyZfi6LJ3q_QlXbLma-134" edge="1">
          <mxGeometry relative="1" as="geometry" />
        </mxCell>
        <mxCell id="V7lyZfi6LJ3q_QlXbLma-133" value="&lt;span style=&quot;font-size: 12px;&quot;&gt;Paket schaden&lt;/span&gt;" style="rhombus;whiteSpace=wrap;html=1;fontSize=9;" parent="WIyWlLk6GJQsqaUBKTNV-1" vertex="1">
          <mxGeometry x="1300" y="260" width="100" height="50" as="geometry" />
        </mxCell>
        <mxCell id="V7lyZfi6LJ3q_QlXbLma-134" value="&lt;span style=&quot;font-size: 12px;&quot;&gt;Inhalt funktioniert&lt;/span&gt;" style="rhombus;whiteSpace=wrap;html=1;fontSize=9;" parent="WIyWlLk6GJQsqaUBKTNV-1" vertex="1">
          <mxGeometry x="1300" y="330" width="100" height="50" as="geometry" />
        </mxCell>
        <mxCell id="vxE3cyV0QQCx0lp7ClC_-195" value="Urlaubsantragsprozess" style="swimlane;childLayout=stackLayout;resizeParent=1;resizeParentMax=0;startSize=20;html=1;" parent="WIyWlLk6GJQsqaUBKTNV-1" vertex="1">
          <mxGeometry x="1550.0000000000005" y="50" width="990" height="690" as="geometry" />
        </mxCell>
        <mxCell id="vxE3cyV0QQCx0lp7ClC_-196" value="Mitarbeiter" style="swimlane;startSize=20;html=1;" parent="vxE3cyV0QQCx0lp7ClC_-195" vertex="1">
          <mxGeometry y="20" width="120" height="670" as="geometry">
            <mxRectangle y="20" width="40" height="460" as="alternateBounds" />
          </mxGeometry>
        </mxCell>
        <mxCell id="vxE3cyV0QQCx0lp7ClC_-197" style="edgeStyle=orthogonalEdgeStyle;rounded=0;orthogonalLoop=1;jettySize=auto;html=1;exitX=0.5;exitY=1;exitDx=0;exitDy=0;entryX=0.5;entryY=0;entryDx=0;entryDy=0;" parent="vxE3cyV0QQCx0lp7ClC_-196" target="vxE3cyV0QQCx0lp7ClC_-198" edge="1">
          <mxGeometry relative="1" as="geometry">
            <mxPoint x="60.00000000000006" y="80" as="sourcePoint" />
          </mxGeometry>
        </mxCell>
        <mxCell id="vxE3cyV0QQCx0lp7ClC_-328" style="edgeStyle=orthogonalEdgeStyle;rounded=0;orthogonalLoop=1;jettySize=auto;html=1;exitX=0.5;exitY=1;exitDx=0;exitDy=0;" parent="vxE3cyV0QQCx0lp7ClC_-196" source="vxE3cyV0QQCx0lp7ClC_-198" edge="1">
          <mxGeometry relative="1" as="geometry">
            <mxPoint x="59.93103448275815" y="200" as="targetPoint" />
          </mxGeometry>
        </mxCell>
        <mxCell id="vxE3cyV0QQCx0lp7ClC_-198" value="Antrag über Internes-System" style="rounded=0;whiteSpace=wrap;html=1;" parent="vxE3cyV0QQCx0lp7ClC_-196" vertex="1">
          <mxGeometry x="10" y="100" width="100" height="50" as="geometry" />
        </mxCell>
        <mxCell id="vxE3cyV0QQCx0lp7ClC_-199" value="" style="ellipse;whiteSpace=wrap;html=1;aspect=fixed;" parent="vxE3cyV0QQCx0lp7ClC_-196" vertex="1">
          <mxGeometry x="35" y="30" width="50" height="50" as="geometry" />
        </mxCell>
        <mxCell id="vxE3cyV0QQCx0lp7ClC_-322" style="edgeStyle=orthogonalEdgeStyle;rounded=0;orthogonalLoop=1;jettySize=auto;html=1;exitX=0.5;exitY=1;exitDx=0;exitDy=0;entryX=0.5;entryY=0;entryDx=0;entryDy=0;" parent="vxE3cyV0QQCx0lp7ClC_-196" source="vxE3cyV0QQCx0lp7ClC_-200" target="vxE3cyV0QQCx0lp7ClC_-321" edge="1">
          <mxGeometry relative="1" as="geometry" />
        </mxCell>
        <mxCell id="vxE3cyV0QQCx0lp7ClC_-200" value="Urlaubs Bestätigung" style="rounded=0;whiteSpace=wrap;html=1;" parent="vxE3cyV0QQCx0lp7ClC_-196" vertex="1">
          <mxGeometry x="10" y="400" width="100" height="50" as="geometry" />
        </mxCell>
        <mxCell id="vxE3cyV0QQCx0lp7ClC_-324" style="edgeStyle=orthogonalEdgeStyle;rounded=0;orthogonalLoop=1;jettySize=auto;html=1;exitX=0.5;exitY=1;exitDx=0;exitDy=0;entryX=0.5;entryY=0;entryDx=0;entryDy=0;" parent="vxE3cyV0QQCx0lp7ClC_-196" source="vxE3cyV0QQCx0lp7ClC_-321" target="vxE3cyV0QQCx0lp7ClC_-323" edge="1">
          <mxGeometry relative="1" as="geometry" />
        </mxCell>
        <mxCell id="vxE3cyV0QQCx0lp7ClC_-321" value="Urlaubs beginn" style="rounded=0;whiteSpace=wrap;html=1;" parent="vxE3cyV0QQCx0lp7ClC_-196" vertex="1">
          <mxGeometry x="10" y="464" width="100" height="50" as="geometry" />
        </mxCell>
        <mxCell id="vxE3cyV0QQCx0lp7ClC_-326" style="edgeStyle=orthogonalEdgeStyle;rounded=0;orthogonalLoop=1;jettySize=auto;html=1;exitX=0.5;exitY=1;exitDx=0;exitDy=0;entryX=0.5;entryY=0;entryDx=0;entryDy=0;" parent="vxE3cyV0QQCx0lp7ClC_-196" source="vxE3cyV0QQCx0lp7ClC_-323" target="vxE3cyV0QQCx0lp7ClC_-325" edge="1">
          <mxGeometry relative="1" as="geometry" />
        </mxCell>
        <mxCell id="vxE3cyV0QQCx0lp7ClC_-323" value="Urlaubs ende" style="rounded=0;whiteSpace=wrap;html=1;" parent="vxE3cyV0QQCx0lp7ClC_-196" vertex="1">
          <mxGeometry x="10" y="530" width="100" height="50" as="geometry" />
        </mxCell>
        <mxCell id="vxE3cyV0QQCx0lp7ClC_-325" value="" style="ellipse;whiteSpace=wrap;html=1;aspect=fixed;labelBorderColor=default;strokeWidth=4;fillColor=#1D1D1D;perimeterSpacing=1;" parent="vxE3cyV0QQCx0lp7ClC_-196" vertex="1">
          <mxGeometry x="40" y="610" width="40" height="40" as="geometry" />
        </mxCell>
        <mxCell id="vxE3cyV0QQCx0lp7ClC_-327" value="" style="endArrow=none;html=1;rounded=0;fontColor=#db0000;strokeColor=#f00000;" parent="vxE3cyV0QQCx0lp7ClC_-196" edge="1">
          <mxGeometry width="50" height="50" relative="1" as="geometry">
            <mxPoint x="9.999999999999545" y="200" as="sourcePoint" />
            <mxPoint x="109.99999999999955" y="200" as="targetPoint" />
          </mxGeometry>
        </mxCell>
        <mxCell id="vxE3cyV0QQCx0lp7ClC_-329" value="" style="endArrow=classic;html=1;rounded=0;entryX=0;entryY=0.5;entryDx=0;entryDy=0;" parent="vxE3cyV0QQCx0lp7ClC_-196" target="vxE3cyV0QQCx0lp7ClC_-213" edge="1">
          <mxGeometry width="50" height="50" relative="1" as="geometry">
            <mxPoint x="99.99999999999955" y="200" as="sourcePoint" />
            <mxPoint x="129.99999999999955" y="200" as="targetPoint" />
            <Array as="points">
              <mxPoint x="99.99999999999955" y="230" />
              <mxPoint x="129.99999999999955" y="230" />
              <mxPoint x="129.99999999999955" y="195" />
            </Array>
          </mxGeometry>
        </mxCell>
        <mxCell id="vxE3cyV0QQCx0lp7ClC_-330" value="Information an Vorgestzer" style="rounded=0;whiteSpace=wrap;html=1;" parent="vxE3cyV0QQCx0lp7ClC_-196" vertex="1">
          <mxGeometry x="10" y="260" width="100" height="50" as="geometry" />
        </mxCell>
        <mxCell id="vxE3cyV0QQCx0lp7ClC_-333" value="" style="endArrow=classic;html=1;rounded=0;entryX=0.5;entryY=0;entryDx=0;entryDy=0;" parent="vxE3cyV0QQCx0lp7ClC_-196" target="vxE3cyV0QQCx0lp7ClC_-330" edge="1">
          <mxGeometry width="50" height="50" relative="1" as="geometry">
            <mxPoint x="19.999999999999545" y="200" as="sourcePoint" />
            <mxPoint x="89.99999999999955" y="210" as="targetPoint" />
            <Array as="points">
              <mxPoint x="19.999999999999545" y="240" />
              <mxPoint x="59.999999999999545" y="240" />
            </Array>
          </mxGeometry>
        </mxCell>
        <mxCell id="vxE3cyV0QQCx0lp7ClC_-218" style="edgeStyle=orthogonalEdgeStyle;rounded=0;orthogonalLoop=1;jettySize=auto;html=1;entryX=1;entryY=0.5;entryDx=0;entryDy=0;" parent="vxE3cyV0QQCx0lp7ClC_-195" source="vxE3cyV0QQCx0lp7ClC_-215" target="vxE3cyV0QQCx0lp7ClC_-198" edge="1">
          <mxGeometry relative="1" as="geometry" />
        </mxCell>
        <mxCell id="vxE3cyV0QQCx0lp7ClC_-305" style="edgeStyle=orthogonalEdgeStyle;rounded=0;orthogonalLoop=1;jettySize=auto;html=1;exitX=1;exitY=0.5;exitDx=0;exitDy=0;entryX=0;entryY=0.5;entryDx=0;entryDy=0;" parent="vxE3cyV0QQCx0lp7ClC_-195" source="vxE3cyV0QQCx0lp7ClC_-295" target="vxE3cyV0QQCx0lp7ClC_-302" edge="1">
          <mxGeometry relative="1" as="geometry" />
        </mxCell>
        <mxCell id="vxE3cyV0QQCx0lp7ClC_-308" style="edgeStyle=orthogonalEdgeStyle;rounded=0;orthogonalLoop=1;jettySize=auto;html=1;exitX=0;exitY=0.5;exitDx=0;exitDy=0;entryX=1;entryY=0.5;entryDx=0;entryDy=0;" parent="vxE3cyV0QQCx0lp7ClC_-195" source="vxE3cyV0QQCx0lp7ClC_-306" target="vxE3cyV0QQCx0lp7ClC_-200" edge="1">
          <mxGeometry relative="1" as="geometry">
            <Array as="points">
              <mxPoint x="550" y="560" />
              <mxPoint x="550" y="445" />
            </Array>
          </mxGeometry>
        </mxCell>
        <mxCell id="vxE3cyV0QQCx0lp7ClC_-332" style="edgeStyle=orthogonalEdgeStyle;rounded=0;orthogonalLoop=1;jettySize=auto;html=1;exitX=0.5;exitY=1;exitDx=0;exitDy=0;entryX=0;entryY=0.5;entryDx=0;entryDy=0;" parent="vxE3cyV0QQCx0lp7ClC_-195" source="vxE3cyV0QQCx0lp7ClC_-330" target="vxE3cyV0QQCx0lp7ClC_-331" edge="1">
          <mxGeometry relative="1" as="geometry" />
        </mxCell>
        <mxCell id="vxE3cyV0QQCx0lp7ClC_-208" value="Vorgesetzer" style="swimlane;startSize=20;html=1;" parent="vxE3cyV0QQCx0lp7ClC_-195" vertex="1">
          <mxGeometry x="120" y="20" width="340" height="670" as="geometry">
            <mxRectangle x="120" y="20" width="40" height="460" as="alternateBounds" />
          </mxGeometry>
        </mxCell>
        <mxCell id="vxE3cyV0QQCx0lp7ClC_-209" style="edgeStyle=orthogonalEdgeStyle;rounded=0;orthogonalLoop=1;jettySize=auto;html=1;exitX=0.5;exitY=1;exitDx=0;exitDy=0;entryX=0.5;entryY=0;entryDx=0;entryDy=0;" parent="vxE3cyV0QQCx0lp7ClC_-208" source="vxE3cyV0QQCx0lp7ClC_-292" edge="1">
          <mxGeometry relative="1" as="geometry">
            <mxPoint x="180" y="270.0000000000001" as="targetPoint" />
          </mxGeometry>
        </mxCell>
        <mxCell id="vxE3cyV0QQCx0lp7ClC_-211" style="edgeStyle=orthogonalEdgeStyle;rounded=0;orthogonalLoop=1;jettySize=auto;html=1;exitX=0.5;exitY=0;exitDx=0;exitDy=0;entryX=0.5;entryY=1;entryDx=0;entryDy=0;" parent="vxE3cyV0QQCx0lp7ClC_-208" source="vxE3cyV0QQCx0lp7ClC_-213" target="vxE3cyV0QQCx0lp7ClC_-215" edge="1">
          <mxGeometry relative="1" as="geometry" />
        </mxCell>
        <mxCell id="vxE3cyV0QQCx0lp7ClC_-212" value="Nein" style="edgeLabel;html=1;align=center;verticalAlign=middle;resizable=0;points=[];" parent="vxE3cyV0QQCx0lp7ClC_-211" vertex="1" connectable="0">
          <mxGeometry x="-0.3333" y="1" relative="1" as="geometry">
            <mxPoint x="1" y="3" as="offset" />
          </mxGeometry>
        </mxCell>
        <mxCell id="vxE3cyV0QQCx0lp7ClC_-213" value="Antrag Vollständig" style="rhombus;whiteSpace=wrap;html=1;fontSize=10;" parent="vxE3cyV0QQCx0lp7ClC_-208" vertex="1">
          <mxGeometry x="130" y="170" width="100" height="50" as="geometry" />
        </mxCell>
        <mxCell id="vxE3cyV0QQCx0lp7ClC_-215" value="Mitarbeiter benachrichtigen" style="rounded=0;whiteSpace=wrap;html=1;" parent="vxE3cyV0QQCx0lp7ClC_-208" vertex="1">
          <mxGeometry x="130" y="100" width="100" height="50" as="geometry" />
        </mxCell>
        <mxCell id="vxE3cyV0QQCx0lp7ClC_-299" style="edgeStyle=orthogonalEdgeStyle;rounded=0;orthogonalLoop=1;jettySize=auto;html=1;exitX=1;exitY=0.5;exitDx=0;exitDy=0;entryX=0.5;entryY=1;entryDx=0;entryDy=0;" parent="vxE3cyV0QQCx0lp7ClC_-208" source="vxE3cyV0QQCx0lp7ClC_-292" target="vxE3cyV0QQCx0lp7ClC_-296" edge="1">
          <mxGeometry relative="1" as="geometry" />
        </mxCell>
        <mxCell id="vxE3cyV0QQCx0lp7ClC_-300" value="Nein" style="edgeLabel;html=1;align=center;verticalAlign=middle;resizable=0;points=[];" parent="vxE3cyV0QQCx0lp7ClC_-299" vertex="1" connectable="0">
          <mxGeometry x="-0.7807" y="-1" relative="1" as="geometry">
            <mxPoint as="offset" />
          </mxGeometry>
        </mxCell>
        <mxCell id="vxE3cyV0QQCx0lp7ClC_-295" value="Weiterleiten" style="rounded=0;whiteSpace=wrap;html=1;" parent="vxE3cyV0QQCx0lp7ClC_-208" vertex="1">
          <mxGeometry x="130" y="310" width="100" height="50" as="geometry" />
        </mxCell>
        <mxCell id="vxE3cyV0QQCx0lp7ClC_-293" style="edgeStyle=orthogonalEdgeStyle;rounded=0;orthogonalLoop=1;jettySize=auto;html=1;exitX=0.5;exitY=1;exitDx=0;exitDy=0;entryX=0.5;entryY=0;entryDx=0;entryDy=0;" parent="vxE3cyV0QQCx0lp7ClC_-208" source="vxE3cyV0QQCx0lp7ClC_-292" target="vxE3cyV0QQCx0lp7ClC_-295" edge="1">
          <mxGeometry relative="1" as="geometry">
            <mxPoint x="264.99999999999955" y="300" as="targetPoint" />
          </mxGeometry>
        </mxCell>
        <mxCell id="vxE3cyV0QQCx0lp7ClC_-294" value="Ja" style="edgeLabel;html=1;align=center;verticalAlign=middle;resizable=0;points=[];" parent="vxE3cyV0QQCx0lp7ClC_-293" vertex="1" connectable="0">
          <mxGeometry x="-0.3876" y="1" relative="1" as="geometry">
            <mxPoint as="offset" />
          </mxGeometry>
        </mxCell>
        <mxCell id="vxE3cyV0QQCx0lp7ClC_-298" style="edgeStyle=orthogonalEdgeStyle;rounded=0;orthogonalLoop=1;jettySize=auto;html=1;exitX=0.5;exitY=0;exitDx=0;exitDy=0;entryX=0.5;entryY=1;entryDx=0;entryDy=0;" parent="vxE3cyV0QQCx0lp7ClC_-208" source="vxE3cyV0QQCx0lp7ClC_-296" target="vxE3cyV0QQCx0lp7ClC_-297" edge="1">
          <mxGeometry relative="1" as="geometry" />
        </mxCell>
        <mxCell id="vxE3cyV0QQCx0lp7ClC_-296" value="Mitarbeiter Informieren" style="rounded=0;whiteSpace=wrap;html=1;" parent="vxE3cyV0QQCx0lp7ClC_-208" vertex="1">
          <mxGeometry x="235" y="100" width="100" height="50" as="geometry" />
        </mxCell>
        <mxCell id="vxE3cyV0QQCx0lp7ClC_-297" value="" style="ellipse;whiteSpace=wrap;html=1;aspect=fixed;labelBorderColor=default;strokeWidth=4;" parent="vxE3cyV0QQCx0lp7ClC_-208" vertex="1">
          <mxGeometry x="265" y="40" width="40" height="40" as="geometry" />
        </mxCell>
        <mxCell id="vxE3cyV0QQCx0lp7ClC_-331" value="Postfach" style="rounded=0;whiteSpace=wrap;html=1;" parent="vxE3cyV0QQCx0lp7ClC_-208" vertex="1">
          <mxGeometry x="20" y="310" width="100" height="50" as="geometry" />
        </mxCell>
        <mxCell id="vxE3cyV0QQCx0lp7ClC_-348" value="" style="edgeStyle=orthogonalEdgeStyle;rounded=0;orthogonalLoop=1;jettySize=auto;html=1;exitX=0.5;exitY=1;exitDx=0;exitDy=0;entryX=0.5;entryY=0;entryDx=0;entryDy=0;" parent="vxE3cyV0QQCx0lp7ClC_-208" source="vxE3cyV0QQCx0lp7ClC_-213" target="vxE3cyV0QQCx0lp7ClC_-292" edge="1">
          <mxGeometry relative="1" as="geometry">
            <mxPoint x="1850.0000000000005" y="290" as="sourcePoint" />
            <mxPoint x="1850.0000000000005" y="340.0000000000001" as="targetPoint" />
          </mxGeometry>
        </mxCell>
        <mxCell id="vxE3cyV0QQCx0lp7ClC_-349" value="Ja" style="edgeLabel;html=1;align=center;verticalAlign=middle;resizable=0;points=[];" parent="vxE3cyV0QQCx0lp7ClC_-348" vertex="1" connectable="0">
          <mxGeometry x="-0.1984" y="-3" relative="1" as="geometry">
            <mxPoint x="3" y="-10" as="offset" />
          </mxGeometry>
        </mxCell>
        <mxCell id="vxE3cyV0QQCx0lp7ClC_-292" value="Antrag Genehmigen?" style="rhombus;whiteSpace=wrap;html=1;fontSize=8;" parent="vxE3cyV0QQCx0lp7ClC_-208" vertex="1">
          <mxGeometry x="130" y="235" width="100" height="50" as="geometry" />
        </mxCell>
        <mxCell id="vxE3cyV0QQCx0lp7ClC_-369" value="Antrag überprüfen" style="rounded=0;whiteSpace=wrap;html=1;" parent="vxE3cyV0QQCx0lp7ClC_-208" vertex="1">
          <mxGeometry x="20" y="170" width="100" height="50" as="geometry" />
        </mxCell>
        <mxCell id="vxE3cyV0QQCx0lp7ClC_-226" value="Personalabteilung" style="swimlane;startSize=20;html=1;" parent="vxE3cyV0QQCx0lp7ClC_-195" vertex="1">
          <mxGeometry x="460" y="20" width="530" height="670" as="geometry" />
        </mxCell>
        <mxCell id="vxE3cyV0QQCx0lp7ClC_-246" value="" style="group" parent="vxE3cyV0QQCx0lp7ClC_-226" vertex="1" connectable="0">
          <mxGeometry x="140" y="420" width="100" height="60" as="geometry" />
        </mxCell>
        <mxCell id="vxE3cyV0QQCx0lp7ClC_-247" value="" style="verticalLabelPosition=bottom;verticalAlign=top;html=1;shape=process;whiteSpace=wrap;rounded=1;size=0.14;arcSize=6;" parent="vxE3cyV0QQCx0lp7ClC_-246" vertex="1">
          <mxGeometry y="-5" width="100" height="60" as="geometry" />
        </mxCell>
        <mxCell id="vxE3cyV0QQCx0lp7ClC_-248" value="System Aktualisierung" style="text;html=1;align=center;verticalAlign=middle;whiteSpace=wrap;rounded=0;fontSize=10;" parent="vxE3cyV0QQCx0lp7ClC_-246" vertex="1">
          <mxGeometry x="20" y="10" width="60" height="30" as="geometry" />
        </mxCell>
        <mxCell id="vxE3cyV0QQCx0lp7ClC_-302" value="Urlaubsdaten prüfen" style="rounded=0;whiteSpace=wrap;html=1;" parent="vxE3cyV0QQCx0lp7ClC_-226" vertex="1">
          <mxGeometry x="15" y="310" width="100" height="50" as="geometry" />
        </mxCell>
        <mxCell id="vxE3cyV0QQCx0lp7ClC_-306" value="Bestätigung Versenden" style="rounded=0;whiteSpace=wrap;html=1;" parent="vxE3cyV0QQCx0lp7ClC_-226" vertex="1">
          <mxGeometry x="140" y="515" width="100" height="50" as="geometry" />
        </mxCell>
        <mxCell id="vxE3cyV0QQCx0lp7ClC_-307" style="edgeStyle=orthogonalEdgeStyle;rounded=0;orthogonalLoop=1;jettySize=auto;html=1;exitX=0.5;exitY=1;exitDx=0;exitDy=0;entryX=0.5;entryY=0;entryDx=0;entryDy=0;" parent="vxE3cyV0QQCx0lp7ClC_-226" source="vxE3cyV0QQCx0lp7ClC_-247" target="vxE3cyV0QQCx0lp7ClC_-306" edge="1">
          <mxGeometry relative="1" as="geometry" />
        </mxCell>
        <mxCell id="vxE3cyV0QQCx0lp7ClC_-336" style="edgeStyle=orthogonalEdgeStyle;rounded=0;orthogonalLoop=1;jettySize=auto;html=1;" parent="vxE3cyV0QQCx0lp7ClC_-226" source="vxE3cyV0QQCx0lp7ClC_-334" edge="1">
          <mxGeometry relative="1" as="geometry">
            <mxPoint x="189.99999999999955" y="312.5" as="targetPoint" />
          </mxGeometry>
        </mxCell>
        <mxCell id="vxE3cyV0QQCx0lp7ClC_-334" value="Anzahl Geschäfte" style="shape=document;whiteSpace=wrap;html=1;boundedLbl=1;" parent="vxE3cyV0QQCx0lp7ClC_-226" vertex="1">
          <mxGeometry x="129.99999999999955" y="190" width="120" height="80" as="geometry" />
        </mxCell>
        <mxCell id="vxE3cyV0QQCx0lp7ClC_-338" style="edgeStyle=orthogonalEdgeStyle;rounded=0;orthogonalLoop=1;jettySize=auto;html=1;exitX=0.5;exitY=1;exitDx=0;exitDy=0;exitPerimeter=0;" parent="vxE3cyV0QQCx0lp7ClC_-226" edge="1">
          <mxGeometry relative="1" as="geometry">
            <mxPoint x="189.66666666666652" y="410" as="targetPoint" />
            <mxPoint x="190" y="357.5" as="sourcePoint" />
          </mxGeometry>
        </mxCell>
        <mxCell id="vxE3cyV0QQCx0lp7ClC_-337" style="edgeStyle=orthogonalEdgeStyle;rounded=0;orthogonalLoop=1;jettySize=auto;html=1;exitX=1;exitY=0.5;exitDx=0;exitDy=0;entryX=0;entryY=0.5;entryDx=0;entryDy=0;entryPerimeter=0;" parent="vxE3cyV0QQCx0lp7ClC_-226" source="vxE3cyV0QQCx0lp7ClC_-302" edge="1">
          <mxGeometry relative="1" as="geometry">
            <mxPoint x="167.5" y="335" as="targetPoint" />
          </mxGeometry>
        </mxCell>
        <mxCell id="vxE3cyV0QQCx0lp7ClC_-340" value="" style="verticalLabelPosition=bottom;verticalAlign=top;html=1;shape=mxgraph.flowchart.on-page_reference;" parent="vxE3cyV0QQCx0lp7ClC_-226" vertex="1">
          <mxGeometry x="167.5" y="312.5" width="45" height="45" as="geometry" />
        </mxCell>
        <mxCell id="vxE3cyV0QQCx0lp7ClC_-343" style="edgeStyle=orthogonalEdgeStyle;rounded=0;orthogonalLoop=1;jettySize=auto;html=1;entryX=0;entryY=0.5;entryDx=0;entryDy=0;" parent="vxE3cyV0QQCx0lp7ClC_-226" source="vxE3cyV0QQCx0lp7ClC_-341" target="vxE3cyV0QQCx0lp7ClC_-342" edge="1">
          <mxGeometry relative="1" as="geometry" />
        </mxCell>
        <mxCell id="vxE3cyV0QQCx0lp7ClC_-341" value="XOR" style="text;html=1;align=center;verticalAlign=middle;resizable=0;points=[];autosize=1;strokeColor=none;fillColor=none;" parent="vxE3cyV0QQCx0lp7ClC_-226" vertex="1">
          <mxGeometry x="164.99999999999955" y="320" width="50" height="30" as="geometry" />
        </mxCell>
        <mxCell id="vxE3cyV0QQCx0lp7ClC_-339" value="Nicht zu viel Geschäfte?" style="text;html=1;align=center;verticalAlign=middle;resizable=0;points=[];autosize=1;strokeColor=none;fillColor=none;" parent="vxE3cyV0QQCx0lp7ClC_-226" vertex="1">
          <mxGeometry x="39.999999999999545" y="280" width="150" height="30" as="geometry" />
        </mxCell>
        <mxCell id="vxE3cyV0QQCx0lp7ClC_-345" style="edgeStyle=orthogonalEdgeStyle;rounded=0;orthogonalLoop=1;jettySize=auto;html=1;exitX=0.5;exitY=0;exitDx=0;exitDy=0;entryX=0.5;entryY=1;entryDx=0;entryDy=0;" parent="vxE3cyV0QQCx0lp7ClC_-226" source="vxE3cyV0QQCx0lp7ClC_-342" target="vxE3cyV0QQCx0lp7ClC_-344" edge="1">
          <mxGeometry relative="1" as="geometry" />
        </mxCell>
        <mxCell id="vxE3cyV0QQCx0lp7ClC_-342" value="Antrag abgelehnt" style="rounded=0;whiteSpace=wrap;html=1;" parent="vxE3cyV0QQCx0lp7ClC_-226" vertex="1">
          <mxGeometry x="270" y="310" width="100" height="50" as="geometry" />
        </mxCell>
        <mxCell id="vxE3cyV0QQCx0lp7ClC_-346" style="edgeStyle=orthogonalEdgeStyle;rounded=0;orthogonalLoop=1;jettySize=auto;html=1;exitX=0.5;exitY=0;exitDx=0;exitDy=0;entryX=0.5;entryY=1;entryDx=0;entryDy=0;" parent="vxE3cyV0QQCx0lp7ClC_-226" source="vxE3cyV0QQCx0lp7ClC_-344" target="vxE3cyV0QQCx0lp7ClC_-347" edge="1">
          <mxGeometry relative="1" as="geometry">
            <mxPoint x="89.99999999999955" y="100" as="targetPoint" />
            <Array as="points" />
          </mxGeometry>
        </mxCell>
        <mxCell id="vxE3cyV0QQCx0lp7ClC_-344" value="Grund und nachricht an Mitarbeiter" style="rounded=0;whiteSpace=wrap;html=1;" parent="vxE3cyV0QQCx0lp7ClC_-226" vertex="1">
          <mxGeometry x="270" y="230" width="100" height="50" as="geometry" />
        </mxCell>
        <mxCell id="vxE3cyV0QQCx0lp7ClC_-347" value="" style="ellipse;whiteSpace=wrap;html=1;aspect=fixed;labelBorderColor=default;strokeWidth=4;" parent="vxE3cyV0QQCx0lp7ClC_-226" vertex="1">
          <mxGeometry x="300" y="30" width="40" height="40" as="geometry" />
        </mxCell>
      </root>
    </mxGraphModel>
  </diagram>
</mxfile>
